<?xml version="1.0" standalone="no"?>
<!DOCTYPE svg PUBLIC "-//W3C//DTD SVG 20010904//EN"
 "http://www.w3.org/TR/2001/REC-SVG-20010904/DTD/svg10.dtd">
<svg version="1.0" xmlns="http://www.w3.org/2000/svg"
 width="151.000000pt" height="151.000000pt" viewBox="0 0 151.000000 151.000000"
 preserveAspectRatio="xMidYMid meet">
<metadata>
Created by potrace 1.11, written by Peter Selinger 2001-2013
</metadata>
<g transform="translate(0.000000,151.000000) scale(0.100000,-0.100000)"
fill="#000000" stroke="none">
<path d="M333 1329 c-54 -20 -54 -22 -51 -476 l3 -418 28 -56 c34 -70 106
-142 177 -177 54 -27 57 -27 260 -27 l205 0 59 30 c100 51 183 153 201 250 13
68 7 354 -9 408 -32 109 -114 196 -224 237 -46 17 -83 22 -188 24 l-132 3
-118 93 c-66 52 -125 98 -132 103 -17 13 -53 16 -79 6z m205 -329 l75 -60 151
2 c148 3 152 2 188 -23 82 -56 95 -94 97 -274 2 -128 0 -141 -23 -189 -17 -34
-39 -60 -68 -78 -46 -31 -41 -30 -213 -32 -134 -2 -183 9 -228 52 -60 57 -61
61 -63 375 -1 158 0 287 3 287 3 0 39 -27 81 -60z"/>
</g>
</svg>
